<svg xmlns="http://www.w3.org/2000/svg" width="24" height="24" viewBox="0 0 24 24" shape-rendering="crispEdges"><rect width="24" height="24" fill="none"/><g fill="#1b2f55"><rect x="7" y="2" width="10" height="2"/><rect x="5" y="4" width="14" height="5"/><rect x="4" y="7" width="3" height="7"/><rect x="17" y="7" width="3" height="7"/></g><g fill="#efb88e"><rect x="7" y="7" width="10" height="8"/><rect x="8" y="15" width="8" height="2"/></g><g fill="#182033"><rect x="8" y="10" width="2" height="2"/><rect x="14" y="10" width="2" height="2"/></g><g fill="#4f8cff"><rect x="5" y="17" width="14" height="6"/><rect x="3" y="19" width="3" height="4"/><rect x="18" y="19" width="3" height="4"/></g><g fill="#a9c4ff"><rect x="10" y="17" width="4" height="4"/><rect x="6" y="19" width="2" height="2"/><rect x="16" y="19" width="2" height="2"/></g></svg>